<svg width="360" height="317" viewBox="0 0 360 317" fill="none" xmlns="http://www.w3.org/2000/svg">
<path d="M360 0V95V317H0V299L0.000841141 281L0.000612259 183.5C0.000612259 183.5 65.8337 186.6 69.0337 181C72.2337 175.4 107.034 134 124.034 114L181.534 142.5L250.034 106L275.534 62C294.7 89.6667 333.034 141.5 333.034 127.5C333.034 113.5 360 0 360 0Z" fill="#E5761F"/>
<path d="M65 232.5L0 20V317H360V176.5C360 176.5 332.5 234.2 328.5 241C324.5 247.8 304.5 238.167 295 232.5C262.167 248.667 195 281.4 189 283C181.5 285 121 246 109.5 232.5C100.3 221.7 89.3333 208 85 202.5L65 232.5Z" fill="#C94232"/>
</svg>
