<svg width="360" height="163" viewBox="0 0 360 163" fill="none" xmlns="http://www.w3.org/2000/svg">
<path d="M4.81279 76.0001C-1.18721 61.6001 0.000887997 74.5 0.000887997 74.5L0.000606537 163H360V107L339.313 65.5L246.313 95L237.813 76.0001L209.813 79.5L145.813 35L85.8128 132L63.8128 102C54.9794 111 36.9128 129.6 35.3128 132C33.3128 135 12.3128 94.0001 4.81279 76.0001Z" fill="#C94232"/>
<path d="M4.81279 76.0001C-1.18721 61.6001 0.000887997 74.5 0.000887997 74.5L0.000606537 163H360V107L339.313 65.5L246.313 95L237.813 76.0001L209.813 79.5L145.813 35L85.8128 132L63.8128 102C54.9794 111 36.9128 129.6 35.3128 132C33.3128 135 12.3128 94.0001 4.81279 76.0001Z" fill="black" fill-opacity="0.2"/>
<path d="M360 0.5V78.5V163H57.5C57.5 163 94.9743 118.811 112.823 98.8318L173.193 127.302L245.113 90.84L271.886 46.8855C292.009 74.5236 332.256 126.303 332.256 112.318C332.256 98.3323 360 0.5 360 0.5Z" fill="#E5761F"/>
<circle cx="64.5" cy="72.5" r="13.5" fill="#F6EB73"/>
</svg>
