<svg width="360" height="148" viewBox="0 0 360 148" fill="none" xmlns="http://www.w3.org/2000/svg">
<path d="M318 23L360 93L360 148H62.5L83.5005 94.5L124.501 53.5L217.5 83L226 64.0001L254 67.5L318 23Z" fill="#C94232"/>
<path d="M318 23L360 93L360 148H62.5L83.5005 94.5L124.501 53.5L217.5 83L226 64.0001L254 67.5L318 23Z" fill="black" fill-opacity="0.2"/>
<circle cx="109.5" cy="13.5" r="13.5" fill="#F6EB73"/>
<path d="M-0.000366211 13.5942V81.0001V148H283C283 148 260.026 121.811 242.177 101.832L181.807 130.302L109.887 93.8401L83.1143 49.8856C62.9908 77.5237 22.744 129.304 22.744 115.318C22.744 101.332 -0.000366211 13.5942 -0.000366211 13.5942Z" fill="#E5761F"/>
</svg>
